<svg width="11" height="11" viewBox="0 0 11 11" fill="none" xmlns="http://www.w3.org/2000/svg">
<g clip-path="url(#clip0_203_363)">
<path d="M0.0326135 3.43076V10.9785H2.06922V3.43076H0.0326135ZM6.24579 3.4314C6.95811 3.4314 9.02967 3.72023 9.02967 6.29333V10.9785H6.87234V6.22686C6.87234 5.66978 6.55671 5.2806 5.87333 5.2806C4.73903 5.2806 4.81386 6.22686 4.81386 6.22686V10.9785H2.76632V3.43076H4.81386V4.02772C5.12821 3.78692 5.50002 3.4314 6.24579 3.4314ZM0.0107422 1.71536C0.0107422 1.14713 0.471756 0.686118 1.03998 0.686118C1.60821 0.686118 2.06922 1.14713 2.06922 1.71536C2.06922 2.28358 1.60821 2.7446 1.03998 2.7446C0.471756 2.7446 0.0107422 2.28358 0.0107422 1.71536Z" fill="white"/>
</g>
<defs>
<clipPath id="clip0_203_363">
<rect width="11" height="11" fill="white" transform="matrix(1 0 0 -1 0 11)"/>
</clipPath>
</defs>
</svg>
