<svg width="11" height="11" viewBox="0 0 11 11" fill="none" xmlns="http://www.w3.org/2000/svg">
<path d="M10.6874 1.19382C10.5193 1.71873 10.1625 2.16066 9.69718 2.4392C10.1528 2.38495 10.5864 2.26359 10.9906 2.08454C10.6887 2.5359 10.3066 2.93259 9.86528 3.24887C9.87022 3.34557 9.87215 3.44314 9.87215 3.54049C9.87215 6.51713 7.60653 9.94922 3.46341 9.94922C2.19123 9.94922 1.0076 9.5759 0.0107422 8.93713C0.186999 8.95772 0.366044 8.96865 0.547877 8.96865C1.60328 8.96865 2.57484 8.60842 3.34548 8.0046C2.3602 7.98616 1.52844 7.33495 1.24176 6.44015C1.37963 6.46631 1.52029 6.48068 1.66567 6.48068C1.87152 6.48068 2.07051 6.45323 2.2592 6.40177C1.22932 6.19464 0.452672 5.28397 0.452672 4.19298V4.16489C0.756512 4.33364 1.10367 4.43528 1.47291 4.4475C0.869085 4.04417 0.471113 3.35458 0.471113 2.573C0.471113 2.16002 0.581541 1.77298 0.77581 1.44084C1.88675 2.80351 3.5464 3.70045 5.41832 3.79436C5.37994 3.62969 5.36 3.4575 5.36 3.28103C5.36 2.0378 6.36866 1.02914 7.61275 1.02914C8.26031 1.02914 8.84569 1.30232 9.25675 1.7406C9.76987 1.63918 10.2523 1.45177 10.6874 1.19382Z" fill="white"/>
</svg>
